<?xml version="1.0" encoding="UTF-8" standalone="no"?>
<!-- Created with Inkscape (http://www.inkscape.org/) -->

<svg
   width="214.24776mm"
   height="83.868744mm"
   viewBox="0 0 214.24776 83.868744"
   version="1.1"
   id="svg5"
   xml:space="preserve"
   xmlns="http://www.w3.org/2000/svg"
   xmlns:svg="http://www.w3.org/2000/svg"><defs
     id="defs2" /><g
     id="layer1"
     transform="translate(-24.611165,-423.2553)"><g
       id="g35019"><path
         style="fill:#007fb2;fill-opacity:1;stroke-width:0.127"
         d="m 62.678378,502.99317 c -4.09794,-4.09794 -4.12946,-4.13238 -3.94774,-4.3141 0.27964,-0.27965 0.52743,-1.17131 0.44092,-1.58664 -0.0425,-0.20392 -0.22097,-0.59754 -0.39665,-0.87471 -0.61733,-0.97395 -2.44395,-1.88402 -4.44018,-2.21222 l -0.77074,-0.12672 -10.19154,-10.19421 -10.19154,-10.19422 0.62194,0.0409 c 1.44565,0.0951 2.45554,-0.4348 2.42932,-1.27461 -0.0448,-1.43511 -2.91902,-4.11216 -6.61357,-6.15989 -1.08757,-0.60279 -3.74283,-1.81622 -4.96168,-2.26743 -0.12247,-0.0453 -0.008,-0.21614 0.45198,-0.67638 l 0.61582,-0.61573 1.09116,0.0609 c 2.72589,0.15217 5.63603,-0.68065 6.93958,-1.98596 1.25839,-1.26007 0.67621,-2.48641 -1.55293,-3.27117 l -0.94804,-0.33376 3.08691,-3.08691 3.08691,-3.08691 -0.0269,1.14944 c -0.10661,4.55547 0.53597,10.11355 1.4842,12.8377 0.9459,2.71745 2.02781,3.25969 3.04697,1.52709 1.83518,-3.11984 2.65374,-11.99243 1.8018,-19.53033 l -0.23253,-2.05744 8.37422,-8.37421 8.37422,-8.37422 0.29961,0.1943 c 2.62725,1.7038 5.81941,2.48588 7.62248,1.86752 2.44842,-0.8397 2.62664,-3.40099 0.45471,-6.53502 -0.47545,-0.68606 -0.0905,-0.32778 3.62961,3.3778 2.2888,2.2799 4.14834,4.15839 4.1323,4.17444 -0.0161,0.016 -0.43175,0.22671 -0.92378,0.46816 -5.06145,2.48369 -8.91767,6.21301 -8.56889,8.28688 0.4828,2.87069 7.96613,1.98449 14.55888,-1.72411 l 1.29153,-0.72652 1.45833,1.45581 1.45833,1.45581 -0.31794,0.14278 c -0.41993,0.18857 -1.06358,0.84061 -1.25978,1.2762 -0.22329,0.4957 -0.22303,1.08616 7.5e-4,1.69354 0.72597,1.97044 3.60221,2.00725 4.43189,0.0567 0.0858,-0.20163 0.1743,-0.14001 1.03394,0.71964 l 0.94015,0.94015 -0.61592,0.73866 c -1.27418,1.52813 -1.87307,3.22969 -1.8152,5.15739 0.0411,1.37003 0.37782,2.53498 1.07037,3.70352 2.09506,3.53499 6.74384,4.61599 10.18578,2.36855 0.41833,-0.27315 0.973462,-0.7081 1.233622,-0.96654 l 0.47301,-0.4699 2.91714,2.91714 2.91715,2.91714 -0.58228,0.18105 c -0.47217,0.14681 -0.72621,0.32579 -1.34345,0.94652 -0.64607,0.64972 -0.79381,0.86971 -0.97702,1.45486 -0.4332,1.38359 -0.12793,2.95979 0.78543,4.05531 l 0.47881,0.57429 -5.689992,5.68999 c -3.1295,3.1295 -5.71162,5.66837 -5.73805,5.64193 -0.0264,-0.0264 -0.0821,-0.21142 -0.12368,-0.41108 -0.36974,-1.77508 -2.6973,-2.40168 -4.02814,-1.0844 -1.32488,1.31139 -0.49531,3.68242 1.36619,3.90477 l 0.42205,0.0504 -1.75766,1.75767 c -0.96672,0.96671 -1.77368,1.74165 -1.79325,1.72208 -0.0196,-0.0196 -0.19604,-0.48627 -0.39216,-1.03711 -0.67776,-1.90369 -1.80058,-2.73451 -3.15858,-2.33717 -0.75404,0.22062 -1.98238,1.27728 -2.74469,2.36107 -1.57168,2.2345 -3.02261,6.41588 -3.50542,10.10217 l -0.11802,0.90107 -1.30895,1.30895 -1.30896,1.30896 -0.22739,-0.22739 c -0.65404,-0.65403 -2.13916,-0.714 -2.94425,-0.11888 -0.53692,0.39689 -0.91218,1.0285 -0.98795,1.66289 -0.0612,0.51216 0.23659,1.3961 0.59191,1.75715 l 0.24498,0.24893 -2.60427,2.60427 -2.60427,2.60428 z M 100.8855,471.5481 c 0.38906,-0.83114 0.16532,-2.02454 -0.50528,-2.69514 -0.1204,-0.1204 -0.518742,-0.3193 -0.885212,-0.442 -0.91773,-0.30729 -1.75135,-0.12387 -2.4042,0.52899 -0.98291,0.9829 -1.02877,2.08637 -0.1292,3.1083 0.7252,0.82383 1.49086,1.03875 2.49857,0.70134 0.756932,-0.25344 1.127932,-0.56618 1.425322,-1.20149 z m -24.548022,18.36368 c 0.0924,-0.25272 0.0993,-0.73674 0.016,-1.11961 -0.13012,-0.59805 -0.21367,-0.73388 -0.73771,-1.19931 -0.48776,-0.43321 -0.69838,-0.53627 -1.20596,-0.59009 -0.90771,-0.0963 -1.48898,0.0964 -2.08278,0.69015 -1.2129,1.2129 -0.72325,3.19525 0.93131,3.77041 1.30496,0.45365 2.58111,-0.1894 3.07911,-1.55155 z m -5.47255,3.75787 c -0.0242,-1.13152 -0.49635,-1.92677 -2.08563,-3.5126 -0.9762,-0.97409 -1.51474,-1.4196 -2.40018,-1.98556 -2.08475,-1.33255 -4.17977,-2.15038 -5.78175,-2.25701 -1.12122,-0.0746 -1.77811,0.0839 -2.25014,0.54309 -0.48456,0.47136 -0.51671,1.29372 -0.0886,2.2672 0.43496,0.98913 2.28956,2.9628 3.72607,3.96528 3.48459,2.43174 7.26731,3.33262 8.58569,2.04474 0.2504,-0.24461 0.30768,-0.45172 0.29458,-1.06514 z m 17.59154,-18.74435 c -2.24625,-2.52145 -17.81774,-7.68528 -25.14572,-8.33884 -1.22615,-0.10936 -2.27693,-0.025 -2.50283,0.20087 -0.36926,0.36926 0.77516,1.31094 2.85316,2.34771 6.73242,3.35899 20.8487,7.23846 24.39542,6.70442 0.86473,-0.1302 0.94168,-0.30608 0.39997,-0.91416 z m 8.64746,-10.4522 c 0.49873,-1.45967 -0.65818,-2.02298 -2.96836,-1.44533 -1.96767,0.492 -4.17758,1.82942 -5.66619,3.42913 -1.00596,1.08102 -1.31459,1.7117 -1.19933,2.45079 0.0556,0.3568 0.11969,0.43835 0.49119,0.62548 0.86247,0.43445 2.77694,0.0876 4.64476,-0.84161 1.52276,-0.75751 2.27585,-1.30685 3.42708,-2.49988 0.89883,-0.93146 1.09045,-1.1906 1.27085,-1.71858 z m -15.93554,14.84062 c 0.61098,-1.88477 -1.12467,-3.51893 -3.07158,-2.89198 -1.18499,0.3816 -1.83235,1.69699 -1.44416,2.93446 0.16856,0.53734 0.93314,1.2519 1.55555,1.45378 1.19238,0.38676 2.57657,-0.31289 2.96019,-1.49626 z m -7.20567,1.7974 c 0.77696,-2.28373 -0.33417,-4.90425 -2.24432,-5.29303 -1.75335,-0.35687 -3.35842,1.47144 -3.35181,3.818 0.006,2.14796 1.26638,3.78012 2.91894,3.78012 1.21812,0 2.17255,-0.82177 2.67719,-2.30509 z m 11.13299,-11.87217 c 0.29173,-0.8392 0.0998,-1.64531 -0.54531,-2.29043 -0.5938,-0.59379 -1.17507,-0.7864 -2.08278,-0.69015 -0.50758,0.0538 -0.7182,0.15689 -1.20596,0.5901 -0.52404,0.46543 -0.60759,0.60126 -0.73771,1.19931 -0.40694,1.87042 1.53675,3.37525 3.35459,2.59715 0.50291,-0.21527 1.00477,-0.79498 1.21717,-1.40598 z m 6.0687,-8.29886 c 0.40436,-0.98476 0.17574,-1.93021 -0.63217,-2.6144 -1.00273,-0.84915 -2.32479,-0.79776 -3.24884,0.12629 -0.51474,0.51474 -0.69501,0.96654 -0.67494,1.69163 0.0676,2.44473 3.62389,3.06644 4.55595,0.79648 z m -24.92724,22.12846 c 0.29173,-0.8392 0.0998,-1.64531 -0.54531,-2.29043 -0.92965,-0.92966 -2.2718,-0.98805 -3.25047,-0.14141 -1.48746,1.28679 -0.98942,3.36092 0.95518,3.9779 1.12898,0.35821 2.42357,-0.34641 2.8406,-1.54606 z m 17.78652,-21.14285 c 0.55095,-1.24906 0.60152,-2.60954 0.14678,-3.94912 -0.26931,-0.79334 -0.36917,-0.94293 -1.15036,-1.72333 -0.7527,-0.75198 -0.938,-0.87985 -1.54296,-1.06508 -0.81934,-0.25087 -1.62785,-0.24513 -2.46723,0.0175 -0.52057,0.16289 -0.74733,0.32428 -1.46897,1.0455 -0.7394,0.73904 -0.89002,0.95418 -1.12788,1.61158 -0.97137,2.68475 0.3763,5.73392 2.85796,6.46628 1.85969,0.54882 3.90717,-0.48656 4.75266,-2.40334 z m -27.9349,25.2468 c 0.1358,-0.76742 -0.0736,-1.43927 -0.61855,-1.98417 -0.56335,-0.56335 -1.11337,-0.7781 -1.86744,-0.72912 -1.3948,0.0906 -2.27708,1.12747 -2.18362,2.56622 0.0754,1.16009 1.09688,2.04834 2.35567,2.04834 1.17552,0 2.11396,-0.77107 2.31394,-1.90127 z m 20.47396,-20.6742 c 0.35017,-0.95045 0.17357,-1.71228 -0.5691,-2.45495 -1.37471,-1.37471 -3.94285,-0.40527 -4.02657,1.51998 -0.0734,1.68789 1.62431,2.88045 3.24863,2.28201 0.28875,-0.10639 0.66644,-0.33486 0.83931,-0.50773 0.17287,-0.17287 0.40134,-0.55056 0.50773,-0.83931 z m 10.65155,-12.92494 c 0.39822,-0.96981 0.24109,-1.77615 -0.48823,-2.50547 -1.13132,-1.13132 -2.80622,-0.92922 -3.75153,0.45268 -0.33619,0.49146 -0.39777,1.29339 -0.15001,1.95358 0.4665,1.24304 1.79091,1.8239 3.07768,1.34982 0.6448,-0.23756 1.05774,-0.63115 1.31209,-1.25061 z m -26.58442,25.95551 c 0.67208,-1.1889 -0.84626,-1.88508 -3.9345,-1.804 -5.40868,0.14199 -11.64738,2.96819 -10.05881,4.55675 1.61072,1.61073 9.83724,0.48705 13.00864,-1.77687 0.75444,-0.53855 0.71583,-0.50029 0.98467,-0.97588 z m 2.36955,-5.56151 c 0.14083,-0.76026 -0.0682,-1.43377 -0.61439,-1.98001 -0.56335,-0.56335 -1.11338,-0.7781 -1.86744,-0.72912 -1.3948,0.0906 -2.27708,1.12747 -2.18362,2.56623 0.0753,1.16008 1.09688,2.04833 2.35567,2.04833 1.16773,0 2.09914,-0.76835 2.30978,-1.90543 z m 7.62639,-10.98096 c 0.1721,-0.54072 0.0473,-1.29414 -0.34473,-2.08013 -0.26415,-0.52967 -0.59461,-0.92232 -1.68264,-1.99926 -1.2052,-1.19291 -1.4693,-1.40163 -2.40402,-1.89982 -1.84428,-0.98297 -3.70597,-1.41075 -4.66,-1.07077 -1.23177,0.43896 -1.49005,1.48819 -0.75481,3.0664 0.2311,0.49607 0.54291,0.86764 1.63898,1.95312 1.20341,1.19176 1.4704,1.40302 2.40647,1.90405 1.94421,1.04065 3.63734,1.42529 4.75539,1.0803 0.60857,-0.18778 0.88049,-0.43591 1.04536,-0.95389 z m 4.68434,-6.36916 c 0.8641,-2.30249 -2.10514,-4.20266 -3.84634,-2.46146 -0.75228,0.75228 -0.93006,1.50971 -0.57838,2.46424 0.45599,1.23767 1.78668,1.82097 3.07303,1.34704 0.66561,-0.24523 1.09991,-0.67893 1.35169,-1.34982 z m 7.60286,-8.7165 c 1.29887,-2.17312 -1.56341,-4.37169 -5.46936,-4.20113 -0.69389,0.0303 -1.57447,0.19114 -2.17331,0.39696 -0.92361,0.31745 -1.0711,0.41031 -1.78597,1.12455 -0.91395,0.91305 -1.03531,1.29105 -0.72383,2.25345 0.89366,2.76119 7.01571,3.43126 9.69214,1.06082 0.0947,-0.0838 0.30182,-0.36944 0.46033,-0.63465 z m -31.04133,28.56286 c 0.36741,-0.979 0.0535,-2.15798 -0.71511,-2.68581 -1.40783,-0.9668 -3.27428,-0.39661 -3.78525,1.15637 -0.4006,1.21757 0.39509,2.56746 1.71672,2.91241 0.46767,0.12206 0.82661,0.10384 1.33993,-0.068 0.82464,-0.27612 1.17288,-0.5933 1.44371,-1.31494 z m 4.55887,-8.4163 c 0.30598,-0.95089 0.29208,-2.01046 -0.0384,-2.92424 -0.36333,-1.00472 -1.55488,-2.23502 -2.50651,-2.58803 -0.9248,-0.34305 -2.19002,-0.33561 -3.1375,0.0185 -1.13536,0.42428 -2.12916,1.40016 -2.52414,2.47864 -0.37306,1.01866 -0.3931,1.99816 -0.0608,2.96932 0.40002,1.16886 1.03123,1.90995 2.12365,2.49335 0.74053,0.39548 0.99877,0.45544 1.96041,0.45515 1.49705,-4.4e-4 2.22035,-0.31322 3.2184,-1.39174 0.59204,-0.63977 0.77837,-0.93157 0.96479,-1.51091 z m 14.0172,-18.74046 c 0.0547,-1.09692 -2.57437,-1.87661 -6.54144,-1.93996 -6.63303,-0.10591 -14.30523,1.8751 -14.70557,3.79707 -0.0643,0.30856 -0.007,0.44785 0.3171,0.772 1.47753,1.47754 8.23146,1.7556 14.14722,0.58244 1.92244,-0.38123 4.05793,-1.04072 5.07177,-1.56626 0.91076,-0.47211 1.68977,-1.22125 1.71092,-1.64529 z m -25.50475,24.90191 c 0.1498,-0.63455 -0.0208,-1.33607 -0.46827,-1.9257 -0.49658,-0.65433 -1.5252,-1.00584 -2.39739,-0.81925 -1.16054,0.24828 -2.00483,1.42129 -1.85015,2.57051 0.10726,0.79685 0.90275,1.68903 1.70706,1.91455 1.30553,0.36605 2.70224,-0.44174 3.00875,-1.74011 z m 14.02308,-13.81981 c 0.24776,-0.66018 0.18619,-1.46211 -0.15,-1.95357 -0.94531,-1.3819 -2.62022,-1.584 -3.75154,-0.45268 -0.72932,0.72932 -0.88644,1.53565 -0.48823,2.50547 0.48085,1.17105 1.79062,1.71021 3.03809,1.2506 0.66561,-0.24523 1.0999,-0.67892 1.35168,-1.34982 z m 7.53877,-15.26365 c 0.34837,-0.94556 0.17319,-1.71266 -0.55811,-2.44397 -0.92016,-0.92016 -2.3833,-0.92055 -3.30297,-8.8e-4 -0.73222,0.73222 -0.90751,1.49889 -0.55899,2.44485 0.45599,1.23767 1.78668,1.82097 3.07303,1.34704 0.28875,-0.10639 0.66644,-0.33486 0.83931,-0.50773 0.17287,-0.17287 0.40135,-0.55056 0.50773,-0.83931 z m -15.93001,15.09346 c 0.25835,-0.62917 0.26905,-1.18706 0.035,-1.82243 -0.26422,-0.71717 -0.61365,-1.03578 -1.43906,-1.31215 -0.91535,-0.30649 -1.77132,-0.10871 -2.44496,0.56493 -1.94947,1.94947 0.4588,4.9211 2.91936,3.60228 0.48382,-0.25931 0.71981,-0.52143 0.92971,-1.03263 z m 15.44485,-24.78258 c 0.25925,-0.63139 0.26805,-1.02312 0.037,-1.64659 -0.35543,-0.95901 -1.29052,-1.55848 -2.37345,-1.52154 -1.21791,0.0415 -2.18602,1.00965 -2.2195,2.2195 -0.0203,0.73253 0.16108,1.17778 0.69868,1.71538 1.19499,1.19498 3.21679,0.79309 3.85728,-0.76675 z m -5.95093,4.44223 c 0.27267,-0.84064 0.27446,-1.49218 0.006,-2.27429 -0.22407,-0.65336 -0.33131,-0.80359 -0.99651,-1.39599 -0.58387,-0.51996 -0.8852,-0.70032 -1.39032,-0.83216 -1.29092,-0.33693 -2.52399,0.002 -3.47456,0.95618 -0.7404,0.7429 -1.05428,1.56905 -0.9885,2.60177 0.19919,3.1271 4.19282,4.43463 6.20282,2.03082 0.25922,-0.31 0.5476,-0.79885 0.64084,-1.08633 z m -7.97495,6.91221 c 0.37734,-1.25018 -0.26168,-2.50408 -1.49454,-2.93266 -1.43907,-0.50026 -3.03553,0.52761 -3.13226,2.01666 -0.14231,2.1909 2.49058,3.3512 4.07373,1.79526 0.23174,-0.22776 0.47146,-0.60885 0.55307,-0.87926 z"
         id="path35010" /><text
         xml:space="preserve"
         style="font-style:normal;font-variant:normal;font-weight:normal;font-stretch:normal;font-size:35.3539px;font-family:'Yu Gothic';-inkscape-font-specification:'Yu Gothic';fill:#ffffff;fill-opacity:1;stroke:none;stroke-width:0;stroke-dasharray:none"
         x="136.65718"
         y="439.54672"
         id="text35014"
         transform="scale(0.92489466,1.0812042)"><tspan
           id="tspan35012"
           style="font-style:normal;font-variant:normal;font-weight:normal;font-stretch:normal;font-family:sans-serif;-inkscape-font-specification:sans-serif;fill:#ffffff;fill-opacity:1;stroke-width:0;stroke-dasharray:none"
           x="136.65718"
           y="439.54672">PyHom</tspan></text></g></g></svg>
